<svg width="24" height="24" viewBox="0 0 24 24" fill="none" xmlns="http://www.w3.org/2000/svg">
<path d="M21.75 4.5V16.5C21.75 16.8978 21.592 17.2794 21.3107 17.5607C21.0294 17.842 20.6479 18 20.25 18H7.78128L4.72503 20.64L4.71659 20.6466C4.44658 20.8754 4.10396 21.0007 3.75003 21C3.52997 20.9996 3.31268 20.951 3.11346 20.8575C2.85434 20.7381 2.63511 20.5466 2.48198 20.3058C2.32886 20.0651 2.24833 19.7853 2.25003 19.5V4.5C2.25003 4.10218 2.40806 3.72064 2.68937 3.43934C2.97067 3.15804 3.3522 3 3.75003 3H20.25C20.6479 3 21.0294 3.15804 21.3107 3.43934C21.592 3.72064 21.75 4.10218 21.75 4.5Z" fill="white"/>
</svg>
