<svg width="24" height="24" viewBox="0 0 24 24" fill="none" xmlns="http://www.w3.org/2000/svg">
<path fill-rule="evenodd" clip-rule="evenodd" d="M3.25105 3.25105C3.58579 2.91632 4.1285 2.91632 4.46323 3.25105L12 10.7878L19.5368 3.25105C19.8715 2.91632 20.4142 2.91632 20.7489 3.25105C21.0837 3.58579 21.0837 4.1285 20.7489 4.46323L13.2122 12L20.7489 19.5368C21.0837 19.8715 21.0837 20.4142 20.7489 20.7489C20.4142 21.0837 19.8715 21.0837 19.5368 20.7489L12 13.2122L4.46323 20.7489C4.1285 21.0837 3.58579 21.0837 3.25105 20.7489C2.91632 20.4142 2.91632 19.8715 3.25105 19.5368L10.7878 12L3.25105 4.46323C2.91632 4.1285 2.91632 3.58579 3.25105 3.25105Z" fill="black"/>
</svg>
