<svg width="24" height="24" viewBox="0 0 24 24" fill="none" xmlns="http://www.w3.org/2000/svg">
<g clip-path="url(#clip0_41_3245)">
<path fill-rule="evenodd" clip-rule="evenodd" d="M11.3939 1.96528C11.7286 1.63055 12.2714 1.63055 12.6061 1.96528L23.7489 13.1081C24.0837 13.4429 24.0837 13.9856 23.7489 14.3203C23.4142 14.6551 22.8715 14.6551 22.5368 14.3203L12 3.78356L1.46323 14.3203C1.1285 14.6551 0.585786 14.6551 0.251051 14.3203C-0.0836838 13.9856 -0.0836838 13.4429 0.251051 13.1081L11.3939 1.96528Z" fill="white"/>
<path fill-rule="evenodd" clip-rule="evenodd" d="M4.28573 9.42847C4.75912 9.42847 5.14287 9.81222 5.14287 10.2856V20.5713H18.8572V10.2856C18.8572 9.81222 19.2409 9.42847 19.7143 9.42847C20.1877 9.42847 20.5714 9.81222 20.5714 10.2856V21.4285C20.5714 21.9019 20.1877 22.2856 19.7143 22.2856H4.28573C3.81234 22.2856 3.42859 21.9019 3.42859 21.4285V10.2856C3.42859 9.81222 3.81234 9.42847 4.28573 9.42847Z" fill="white"/>
</g>
<defs>
<clipPath id="clip0_41_3245">
<rect width="24" height="24" fill="white"/>
</clipPath>
</defs>
</svg>
