<svg width="24" height="24" viewBox="0 0 24 24" fill="none" xmlns="http://www.w3.org/2000/svg">
<g clip-path="url(#clip0_41_3264)">
<path fill-rule="evenodd" clip-rule="evenodd" d="M11.3939 1.96541C11.7286 1.63067 12.2714 1.63067 12.6061 1.96541L23.7489 13.1083C24.0837 13.443 24.0837 13.9857 23.7489 14.3204C23.4142 14.6552 22.8715 14.6552 22.5368 14.3204L12 3.78368L1.46323 14.3204C1.1285 14.6552 0.585786 14.6552 0.251051 14.3204C-0.0836838 13.9857 -0.0836838 13.443 0.251051 13.1083L11.3939 1.96541Z" fill="#3D54DF"/>
<path fill-rule="evenodd" clip-rule="evenodd" d="M4.28571 9.42864C4.7591 9.42864 5.14286 9.8124 5.14286 10.2858L11.3939 3.00006H12.6061L18.8571 10.2858C18.8571 9.8124 19.2409 9.42864 19.7143 9.42864C20.1877 9.42864 20.5714 9.8124 20.5714 10.2858V21.4286C20.5714 21.902 20.1877 22.2858 19.7143 22.2858H4.28571C3.81233 22.2858 3.42857 21.902 3.42857 21.4286V10.2858C3.42857 9.8124 3.81233 9.42864 4.28571 9.42864Z" fill="#3D54DF"/>
</g>
<defs>
<clipPath id="clip0_41_3264">
<rect width="24" height="24" fill="white"/>
</clipPath>
</defs>
</svg>
