<svg width="24" height="24" viewBox="0 0 24 24" fill="none" xmlns="http://www.w3.org/2000/svg">
<path d="M14.7106 3.21337L6.23225 11.4572C6.08334 11.602 6 11.7962 6 11.9985C6 12.2007 6.08334 12.3949 6.23225 12.5397L14.7106 20.7866C14.78 20.8542 14.8629 20.9078 14.9545 20.9445C15.0461 20.9811 15.1446 21 15.244 21C15.3434 21 15.4419 20.9811 15.5335 20.9445C15.6251 20.9078 15.708 20.8542 15.7774 20.7866C15.9201 20.6482 16 20.4623 16 20.2687C16 20.0751 15.9201 19.8892 15.7774 19.7507L7.80456 11.9985L15.7774 4.24773C15.9196 4.10933 15.9992 3.92376 15.9992 3.73055C15.9992 3.53734 15.9196 3.35177 15.7774 3.21337C15.708 3.14584 15.6251 3.09217 15.5335 3.05553C15.4419 3.01888 15.3434 3 15.244 3C15.1446 3 15.0461 3.01888 14.9545 3.05553C14.8629 3.09217 14.78 3.14584 14.7106 3.21337Z" fill="black"/>
</svg>
