<svg width="24" height="24" viewBox="0 0 24 24" fill="none" xmlns="http://www.w3.org/2000/svg">
<path d="M12 1C15.681 1 19 3.565 19 7V11.539C19 12.181 19.189 12.808 19.545 13.342L21.745 16.64C21.8978 16.8685 21.9856 17.1343 21.999 17.4088C22.0124 17.6834 21.951 17.9564 21.8213 18.1988C21.6916 18.4412 21.4985 18.6437 21.2626 18.7848C21.0267 18.926 20.7569 19.0003 20.482 19H15.5C15.5 19.4596 15.4095 19.9148 15.2336 20.3394C15.0577 20.764 14.7999 21.1499 14.4749 21.4749C14.1499 21.7999 13.764 22.0577 13.3394 22.2336C12.9148 22.4095 12.4596 22.5 12 22.5C11.5404 22.5 11.0853 22.4095 10.6606 22.2336C10.236 22.0577 9.85015 21.7999 9.52514 21.4749C9.20014 21.1499 8.94233 20.764 8.76644 20.3394C8.59054 19.9148 8.50001 19.4596 8.50001 19H3.51901C3.24426 19.0002 2.97459 18.9259 2.73877 18.7849C2.50294 18.6439 2.30981 18.4415 2.17996 18.1994C2.05012 17.9572 1.98843 17.6844 2.00147 17.41C2.01451 17.1355 2.10179 16.8697 2.25401 16.641L4.45401 13.342C4.81003 12.8081 5.00001 12.1807 5.00001 11.539V7C5.00001 3.565 8.31802 1 12 1ZM6.50001 7V11.539C6.50027 12.4767 6.22296 13.3936 5.70301 14.174L3.50301 17.472L3.50001 17.482L3.50101 17.489L3.50501 17.495L3.51101 17.499L3.51801 17.5H20.482L20.489 17.499L20.495 17.495L20.499 17.489L20.5 17.483L20.497 17.473L18.298 14.174C17.7777 13.3937 17.5001 12.4769 17.5 11.539V7C17.5 4.636 15.117 2.5 12 2.5C8.88302 2.5 6.50001 4.636 6.50001 7ZM14 19H10C10 19.5304 10.2107 20.0391 10.5858 20.4142C10.9609 20.7893 11.4696 21 12 21C12.5304 21 13.0392 20.7893 13.4142 20.4142C13.7893 20.0391 14 19.5304 14 19Z" fill="white"/>
</svg>
