<svg width="24" height="24" viewBox="0 0 24 24" fill="none" xmlns="http://www.w3.org/2000/svg">
<path fill-rule="evenodd" clip-rule="evenodd" d="M18.6094 2.22521C18.7536 2.08101 18.9492 2 19.1532 2C19.3572 2 19.5528 2.08101 19.6971 2.22521L22.774 5.30204C22.8456 5.3735 22.9025 5.45838 22.9413 5.55183C22.98 5.64528 23 5.74547 23 5.84664C23 5.94782 22.98 6.048 22.9413 6.14145C22.9025 6.23491 22.8456 6.31979 22.774 6.39124L16.7093 12.4557C16.5924 12.573 16.4574 12.6706 16.3093 12.7449L10.2678 15.7648C10.1235 15.8368 9.96019 15.8617 9.80101 15.8358C9.64183 15.81 9.4948 15.7348 9.38068 15.6209C9.26657 15.5069 9.19115 15.36 9.16509 15.2009C9.13902 15.0418 9.16363 14.8785 9.23544 14.7341L12.2555 8.69117C12.3297 8.54314 12.4274 8.40808 12.5447 8.29118L18.6094 2.22521ZM19.154 3.85747L13.6309 9.38038L12.0355 12.5741L12.4262 12.9649L15.6216 11.368L21.1432 5.84664L19.154 3.85747ZM15.3078 3.53902L13.7693 5.07744H7.46158C6.80311 5.07744 6.35387 5.07744 6.00926 5.10666C5.67079 5.13436 5.49848 5.18359 5.37848 5.24512C5.08901 5.39261 4.85366 5.62795 4.70617 5.91741C4.64463 6.03741 4.5954 6.20971 4.56771 6.54816C4.53847 6.89277 4.53847 7.34198 4.53847 8.00042V17.5386C4.53847 18.197 4.53847 18.6463 4.56771 18.9909C4.5954 19.3293 4.64463 19.5016 4.70617 19.6216C4.85366 19.9111 5.08901 20.1464 5.37848 20.2939C5.49848 20.3554 5.67079 20.4047 6.00926 20.4324C6.35541 20.4616 6.80311 20.4616 7.46158 20.4616H17.0001C17.6586 20.4616 18.1078 20.4616 18.4524 20.4324C18.7909 20.4047 18.9632 20.3554 19.0832 20.2939C19.3727 20.1464 19.608 19.9111 19.7555 19.6216C19.8171 19.5016 19.8663 19.3293 19.894 18.9909C19.9232 18.6447 19.9232 18.197 19.9232 17.5386V11.2311L21.4617 9.69268V17.5694C21.4617 18.1893 21.4617 18.7001 21.4278 19.117C21.3925 19.5493 21.3171 19.9478 21.1263 20.3201C20.8313 20.899 20.3606 21.3696 19.7817 21.6646C19.4078 21.8554 19.0109 21.9308 18.5786 21.9662C18.1632 22 17.6509 22 17.0324 22H7.43081C6.8108 22 6.30003 22 5.8831 21.9662C5.45079 21.9308 5.05232 21.8554 4.68001 21.6646C4.10107 21.3696 3.63038 20.899 3.33539 20.3201C3.14462 19.9462 3.06923 19.5493 3.03385 19.117C3 18.7016 3 18.1893 3 17.5694V7.96966C3 7.34967 3 6.83892 3.03385 6.42201C3.06923 5.98972 3.14462 5.59127 3.33539 5.21897C3.63038 4.64005 4.10107 4.16938 4.68001 3.87439C5.05386 3.68363 5.45079 3.60825 5.8831 3.57287C6.29849 3.53902 6.8108 3.53902 7.43081 3.53902H7.46158H15.3078Z" fill="#3D54DF"/>
</svg>
