<svg width="24" height="24" viewBox="0 0 24 24" fill="none" xmlns="http://www.w3.org/2000/svg">
<path d="M14 9.99998L11 13M20.288 3.03098C20.3829 2.99823 20.4851 2.99284 20.5829 3.01542C20.6807 3.03801 20.7702 3.08765 20.8411 3.15869C20.912 3.22972 20.9615 3.31927 20.984 3.41711C21.0064 3.51495 21.0009 3.61713 20.968 3.71198L15.044 20.642C15.0085 20.7432 14.9435 20.8314 14.8573 20.8952C14.7711 20.959 14.6677 20.9954 14.5606 20.9997C14.4534 21.004 14.3475 20.976 14.2564 20.9194C14.1654 20.8627 14.0935 20.78 14.05 20.682L10.831 13.44C10.7773 13.3192 10.6807 13.2227 10.56 13.169L3.31799 9.94898C3.22028 9.90535 3.1379 9.83343 3.08149 9.74251C3.02508 9.65159 2.99723 9.54584 3.00153 9.43892C3.00584 9.33201 3.04211 9.22884 3.10565 9.14275C3.16919 9.05666 3.25709 8.9916 3.35798 8.95598L20.288 3.03098Z" stroke="#3D54DF" stroke-width="1.5" stroke-linecap="round" stroke-linejoin="round"/>
</svg>
