<svg width="24" height="24" viewBox="0 0 24 24" fill="none" xmlns="http://www.w3.org/2000/svg">
<path fill-rule="evenodd" clip-rule="evenodd" d="M12 3.25C7.16751 3.25 3.25 7.16751 3.25 12C3.25 16.8325 7.16751 20.75 12 20.75C16.8325 20.75 20.75 16.8325 20.75 12C20.75 7.16751 16.8325 3.25 12 3.25ZM1.75 12C1.75 6.33908 6.33908 1.75 12 1.75C17.6609 1.75 22.25 6.33908 22.25 12C22.25 17.6609 17.6609 22.25 12 22.25C6.33908 22.25 1.75 17.6609 1.75 12Z" fill="#9FAAED"/>
<path fill-rule="evenodd" clip-rule="evenodd" d="M12 5.25C12.4142 5.25 12.75 5.58579 12.75 6V11.25H18C18.4142 11.25 18.75 11.5858 18.75 12C18.75 12.4142 18.4142 12.75 18 12.75H12.75V18C12.75 18.4142 12.4142 18.75 12 18.75C11.5858 18.75 11.25 18.4142 11.25 18V12.75H6C5.58579 12.75 5.25 12.4142 5.25 12C5.25 11.5858 5.58579 11.25 6 11.25H11.25V6C11.25 5.58579 11.5858 5.25 12 5.25Z" fill="#9FAAED"/>
</svg>
