<svg width="24" height="24" viewBox="0 0 24 24" fill="none" xmlns="http://www.w3.org/2000/svg">
<path d="M20.25 3H3.75003C3.3522 3 2.97067 3.15804 2.68937 3.43934C2.40806 3.72064 2.25003 4.10218 2.25003 4.5V19.5C2.2483 19.786 2.32921 20.0665 2.48305 20.3076C2.63689 20.5488 2.8571 20.7404 3.11721 20.8594C3.31543 20.9517 3.53138 20.9997 3.75003 21C4.10214 20.9991 4.44256 20.8735 4.71096 20.6456L4.7194 20.6391L7.78128 18H20.25C20.6479 18 21.0294 17.842 21.3107 17.5607C21.592 17.2794 21.75 16.8978 21.75 16.5V4.5C21.75 4.10218 21.592 3.72064 21.3107 3.43934C21.0294 3.15804 20.6479 3 20.25 3ZM20.25 16.5H7.50003C7.31994 16.5001 7.1459 16.565 7.00971 16.6828L3.75003 19.5V4.5H20.25V16.5Z" fill="#9FAAED"/>
</svg>
