<svg width="24" height="24" viewBox="0 0 24 24" fill="none" xmlns="http://www.w3.org/2000/svg">
<path fill-rule="evenodd" clip-rule="evenodd" d="M3.09377 9.625C3.25125 9.625 3.40228 9.68756 3.51363 9.79891C3.62498 9.91026 3.68754 10.0613 3.68754 10.2188V20.3129H20.3131V10.2188C20.3131 10.0613 20.3757 9.91026 20.487 9.79891C20.5984 9.68756 20.7494 9.625 20.9069 9.625C21.0644 9.625 21.2154 9.68756 21.3267 9.79891C21.4381 9.91026 21.5007 10.0613 21.5007 10.2188V20.9066C21.5007 21.0641 21.4381 21.2151 21.3267 21.3265C21.2154 21.4379 21.0644 21.5004 20.9069 21.5004H3.09377C2.93629 21.5004 2.78527 21.4379 2.67391 21.3265C2.56256 21.2151 2.5 21.0641 2.5 20.9066V10.2188C2.5 10.0613 2.56256 9.91026 2.67391 9.79891C2.78527 9.68756 2.93629 9.625 3.09377 9.625Z" fill="#3D54DF"/>
<path fill-rule="evenodd" clip-rule="evenodd" d="M3.6875 6.65603C3.6875 6.49855 3.75006 6.34752 3.86141 6.23617C3.97277 6.12481 4.12379 6.06226 4.28127 6.06226H19.7193C19.8768 6.06226 20.0278 6.12481 20.1392 6.23617C20.2505 6.34752 20.3131 6.49855 20.3131 6.65603V12.2018C20.313 12.2996 20.2888 12.3959 20.2426 12.4821C20.1964 12.5682 20.1297 12.6417 20.0483 12.6959L12.3292 17.8379C12.2318 17.9028 12.1173 17.9374 12.0003 17.9374C11.8832 17.9374 11.7688 17.9028 11.6713 17.8379L3.95232 12.6959C3.87092 12.6417 3.80415 12.5682 3.75795 12.4821C3.71175 12.3959 3.68755 12.2996 3.6875 12.2018V6.65603ZM4.87504 7.2498V11.8836L12.0003 16.6302L19.1255 11.8836V7.2498H4.87504Z" fill="#3D54DF"/>
<path fill-rule="evenodd" clip-rule="evenodd" d="M11.6713 2.59945C11.7688 2.5346 11.8832 2.5 12.0003 2.5C12.1173 2.5 12.2318 2.5346 12.3292 2.59945L17.6732 6.16207L17.0153 7.1501L12.0003 3.80718L6.9853 7.1501L6.3274 6.16207L11.6713 2.59945ZM20.1397 8.61078L21.3272 9.79832L20.4865 10.6391L19.2989 9.45156L20.1397 8.61078ZM4.70166 9.45156L3.51412 10.6391L2.67334 9.79832L3.86088 8.61078L4.70166 9.45156ZM8.14078 9.62494C8.14078 9.5462 8.17206 9.47069 8.22773 9.41501C8.28341 9.35933 8.35893 9.32805 8.43766 9.32805H15.5629C15.6417 9.32805 15.7172 9.35933 15.7728 9.41501C15.8285 9.47069 15.8598 9.5462 15.8598 9.62494C15.8598 9.70368 15.8285 9.77919 15.7728 9.83487C15.7172 9.89055 15.6417 9.92183 15.5629 9.92183H8.43766C8.35893 9.92183 8.28341 9.89055 8.22773 9.83487C8.17206 9.77919 8.14078 9.70368 8.14078 9.62494ZM8.73455 12C8.73455 11.9213 8.76583 11.8458 8.82151 11.7901C8.87718 11.7344 8.9527 11.7031 9.03144 11.7031H14.9691C15.0479 11.7031 15.1234 11.7344 15.1791 11.7901C15.2347 11.8458 15.266 11.9213 15.266 12C15.266 12.0788 15.2347 12.1543 15.1791 12.21C15.1234 12.2656 15.0479 12.2969 14.9691 12.2969H9.03144C8.9527 12.2969 8.87718 12.2656 8.82151 12.21C8.76583 12.1543 8.73455 12.0788 8.73455 12Z" fill="#3D54DF"/>
</svg>
