<svg width="24" height="24" viewBox="0 0 24 24" fill="none" xmlns="http://www.w3.org/2000/svg">
<path d="M9.28937 20.7866L17.7678 12.5428C17.9167 12.398 18 12.2038 18 12.0015C18 11.7993 17.9167 11.6051 17.7678 11.4603L9.28937 3.21337C9.22001 3.14584 9.13707 3.09217 9.04546 3.05553C8.95386 3.01888 8.85543 3 8.756 3C8.65656 3 8.55814 3.01888 8.46653 3.05553C8.37492 3.09217 8.29199 3.14584 8.22262 3.21337C8.0799 3.35184 8 3.53774 8 3.73132C8 3.92491 8.0799 4.1108 8.22262 4.24928L16.1954 12.0015L8.22262 19.7523C8.08039 19.8907 8.0008 20.0762 8.0008 20.2694C8.0008 20.4627 8.08039 20.6482 8.22262 20.7866C8.29199 20.8542 8.37492 20.9078 8.46653 20.9445C8.55814 20.9811 8.65656 21 8.756 21C8.85543 21 8.95385 20.9811 9.04546 20.9445C9.13707 20.9078 9.22001 20.8542 9.28937 20.7866Z" fill="#777777"/>
</svg>
