<svg width="24" height="24" viewBox="0 0 24 24" fill="none" xmlns="http://www.w3.org/2000/svg">
<path fill-rule="evenodd" clip-rule="evenodd" d="M7.6514 2.91583C8.71303 2.47609 9.85087 2.24976 11 2.24976C12.1491 2.24976 13.2869 2.47609 14.3485 2.91583C15.4101 3.35556 16.3748 4.0001 17.1873 4.81263C17.9998 5.62516 18.6444 6.58978 19.0841 7.6514C19.5238 8.71303 19.7502 9.85087 19.7502 11C19.7502 12.1491 19.5238 13.2869 19.0841 14.3485C18.7403 15.1785 18.2714 15.9491 17.6949 16.6342L21.5303 20.4696C21.8232 20.7625 21.8232 21.2374 21.5303 21.5303C21.2374 21.8232 20.7625 21.8232 20.4696 21.5303L16.6342 17.6949C15.0631 19.0171 13.0693 19.7502 11 19.7502C8.67926 19.7502 6.45361 18.8283 4.81263 17.1873C3.17165 15.5463 2.24976 13.3207 2.24976 11C2.24976 8.67926 3.17165 6.45361 4.81263 4.81263C5.62516 4.0001 6.58978 3.35556 7.6514 2.91583ZM11 3.74976C10.0479 3.74976 9.10506 3.93729 8.22543 4.30164C7.34579 4.666 6.54654 5.20005 5.87329 5.87329C4.51361 7.23297 3.74976 9.07709 3.74976 11C3.74976 12.9228 4.51361 14.767 5.87329 16.1266C7.23297 17.4863 9.07709 18.2502 11 18.2502C12.9228 18.2502 14.767 17.4863 16.1266 16.1266C16.7999 15.4534 17.3339 14.6541 17.6983 13.7745C18.0626 12.8949 18.2502 11.9521 18.2502 11C18.2502 10.0479 18.0626 9.10506 17.6983 8.22543C17.3339 7.34579 16.7999 6.54654 16.1266 5.87329C15.4534 5.20005 14.6541 4.666 13.7745 4.30164C12.8949 3.93729 11.9521 3.74976 11 3.74976Z" fill="#3D54DF"/>
</svg>
