<svg width="24" height="24" viewBox="0 0 24 24" fill="none" xmlns="http://www.w3.org/2000/svg">
<path d="M22.707 17.8096L13.9614 3.08737C13.7605 2.75627 13.474 2.48177 13.13 2.29105C12.7861 2.10033 12.3967 2 12.0005 2C11.6043 2 11.2149 2.10033 10.871 2.29105C10.527 2.48177 10.2404 2.75627 10.0396 3.08737L1.29395 17.8096C1.10145 18.129 1 18.4924 1 18.8623C1 19.2323 1.10145 19.5956 1.29395 19.9151C1.49214 20.2485 1.77835 20.5248 2.12316 20.7154C2.46797 20.9061 2.85894 21.0042 3.25587 20.9999H20.7451C21.1417 21.0039 21.5323 20.9056 21.8767 20.7149C22.2211 20.5243 22.507 20.2482 22.705 19.9151C22.8979 19.5958 22.9996 19.2326 23 18.8626C23.0003 18.4926 22.8992 18.1292 22.707 17.8096ZM21.6661 19.3325C21.5726 19.4883 21.438 19.6171 21.2762 19.7057C21.1143 19.7943 20.931 19.8395 20.7451 19.8366H3.25587C3.07 19.8395 2.8867 19.7943 2.72483 19.7057C2.56295 19.6171 2.42836 19.4883 2.33491 19.3325C2.24749 19.19 2.20135 19.0272 2.20135 18.8614C2.20135 18.6955 2.24749 18.5328 2.33491 18.3902L11.0795 3.66804C11.1751 3.51408 11.3102 3.38671 11.4715 3.29828C11.6329 3.20986 11.8151 3.16339 12.0005 3.16339C12.1859 3.16339 12.3681 3.20986 12.5294 3.29828C12.6908 3.38671 12.8259 3.51408 12.9215 3.66804L21.6671 18.3902C21.7544 18.5329 21.8003 18.6957 21.8001 18.8615C21.8 19.0273 21.7537 19.19 21.6661 19.3325ZM11.4005 13.4386V9.56099C11.4005 9.40673 11.4637 9.25879 11.5763 9.14971C11.6888 9.04064 11.8414 8.97936 12.0005 8.97936C12.1596 8.97936 12.3122 9.04064 12.4247 9.14971C12.5373 9.25879 12.6005 9.40673 12.6005 9.56099V13.4386C12.6005 13.5928 12.5373 13.7408 12.4247 13.8499C12.3122 13.9589 12.1596 14.0202 12.0005 14.0202C11.8414 14.0202 11.6888 13.9589 11.5763 13.8499C11.4637 13.7408 11.4005 13.5928 11.4005 13.4386ZM13.0005 16.9284C13.0005 17.1201 12.9418 17.3076 12.8319 17.467C12.7221 17.6264 12.5659 17.7506 12.3832 17.824C12.2004 17.8974 11.9994 17.9166 11.8054 17.8792C11.6114 17.8418 11.4333 17.7494 11.2934 17.6139C11.1536 17.4783 11.0583 17.3056 11.0198 17.1175C10.9812 16.9295 11.001 16.7346 11.0767 16.5574C11.1523 16.3803 11.2805 16.2289 11.445 16.1224C11.6094 16.0159 11.8027 15.959 12.0005 15.959C12.2657 15.959 12.52 16.0611 12.7076 16.2429C12.8951 16.4247 13.0005 16.6713 13.0005 16.9284Z" fill="#F87A5E"/>
</svg>
